<svg width="54" height="56" viewBox="0 0 54 56" fill="none" xmlns="http://www.w3.org/2000/svg">
<path d="M11.0119 45.3333C10.3941 45.3333 9.85354 45.1 9.39021 44.6333C8.92688 44.1667 8.69522 43.6222 8.69522 43C8.69522 42.3778 8.92688 41.8333 9.39021 41.3667C9.85354 40.9 10.3941 40.6667 11.0119 40.6667C11.6296 40.6667 12.1702 40.9 12.6335 41.3667C13.0969 41.8333 13.3285 42.3778 13.3285 43C13.3285 43.6222 13.0969 44.1667 12.6335 44.6333C12.1702 45.1 11.6296 45.3333 11.0119 45.3333ZM42.7831 45.3333C42.1654 45.3333 41.6248 45.1 41.1615 44.6333C40.6982 44.1667 40.4665 43.6222 40.4665 43C40.4665 42.3778 40.6982 41.8333 41.1615 41.3667C41.6248 40.9 42.1654 40.6667 42.7831 40.6667C43.4009 40.6667 43.9415 40.9 44.4048 41.3667C44.8681 41.8333 45.0998 42.3778 45.0998 43C45.0998 43.6222 44.8681 44.1667 44.4048 44.6333C43.9415 45.1 43.4009 45.3333 42.7831 45.3333ZM18.9547 56C18.3369 56 17.7964 55.7667 17.333 55.3C16.8697 54.8333 16.638 54.2889 16.638 53.6667C16.638 53.0444 16.8697 52.5 17.333 52.0333C17.7964 51.5667 18.3369 51.3333 18.9547 51.3333C19.5725 51.3333 20.113 51.5667 20.5763 52.0333C21.0397 52.5 21.2713 53.0444 21.2713 53.6667C21.2713 54.2889 21.0397 54.8333 20.5763 55.3C20.113 55.7667 19.5725 56 18.9547 56ZM26.8975 45.3333C26.2797 45.3333 25.7392 45.1 25.2758 44.6333C24.8125 44.1667 24.5808 43.6222 24.5808 43C24.5808 42.3778 24.8125 41.8333 25.2758 41.3667C25.7392 40.9 26.2797 40.6667 26.8975 40.6667C27.5153 40.6667 28.0558 40.9 28.5192 41.3667C28.9825 41.8333 29.2142 42.3778 29.2142 43C29.2142 43.6222 28.9825 44.1667 28.5192 44.6333C28.0558 45.1 27.5153 45.3333 26.8975 45.3333ZM34.8403 56C34.2225 56 33.682 55.7667 33.2187 55.3C32.7553 54.8333 32.5237 54.2889 32.5237 53.6667C32.5237 53.0444 32.7553 52.5 33.2187 52.0333C33.682 51.5667 34.2225 51.3333 34.8403 51.3333C35.4581 51.3333 35.9986 51.5667 36.462 52.0333C36.9253 52.5 37.157 53.0444 37.157 53.6667C37.157 54.2889 36.9253 54.8333 36.462 55.3C35.9986 55.7667 35.4581 56 34.8403 56ZM14.3214 36C10.4823 36 7.20594 34.6333 4.49214 31.9C1.77835 29.1667 0.421448 25.8667 0.421448 22C0.421448 18.4889 1.66803 15.3556 4.16119 12.6C6.65435 9.84444 9.75426 8.33333 13.4609 8.06667C14.873 5.57778 16.7373 3.61111 19.054 2.16667C21.3706 0.722222 23.9851 0 26.8975 0C30.913 0 34.2777 1.27778 36.9915 3.83333C39.7053 6.38889 41.3711 9.55556 41.9889 13.3333C45.4749 13.5111 48.2438 14.7 50.2957 16.9C52.3476 19.1 53.3736 21.6889 53.3736 24.6667C53.3736 27.7778 52.2814 30.4444 50.0971 32.6667C47.9129 34.8889 45.2542 36 42.1212 36H14.3214ZM14.3214 32H42.1212C44.1511 32 45.872 31.2778 47.2841 29.8333C48.6961 28.3889 49.4022 26.6444 49.4022 24.6C49.4022 22.6 48.6961 20.8889 47.2841 19.4667C45.872 18.0444 44.1511 17.3333 42.1212 17.3333H38.1498V15.3333C38.1498 12.1778 37.0577 9.5 34.8734 7.3C32.6891 5.1 30.0305 4 26.8975 4C24.647 4 22.5841 4.61111 20.7087 5.83333C18.8333 7.05556 17.4544 8.71111 16.5718 10.8L16.0423 12H14.189C11.4531 12.0889 9.13648 13.1 7.23903 15.0333C5.34158 16.9667 4.39286 19.2889 4.39286 22C4.39286 24.7556 5.36364 27.1111 7.30522 29.0667C9.2468 31.0222 11.5855 32 14.3214 32Z" fill="white"/>
</svg>
